<svg aria-hidden="true" style="position:absolute;width:0;height:0;overflow:hidden" xmlns="http://www.w3.org/2000/svg"><defs><symbol id="icon-antena" viewBox="0 0 32 32"><path fill="#212121" style="fill:var(--color1, #212121)" d="m30.773 22.098-8.443-8.505.937-4.616c.225.09.485.144.758.146h.033a2.16 2.16 0 1 0-2.029-1.42l-.005-.015-4.96.606L8.973.161a.53.53 0 0 0-.376-.16.536.536 0 0 0-.373.155L6.712 1.66a.535.535 0 0 0 0 .754l.814.825C6.383 5.301 5.71 7.761 5.71 10.378c0 4.106 1.656 7.824 4.336 10.525l-.001-.001a.49.49 0 0 0 .146.097 2.986 2.986 0 0 0-.052.546v6.188h-6.4a2.669 2.669 0 0 0-2.667 2.666v1.067c0 .295.239.534.534.534H26.14a.534.534 0 0 0 .533-.534v-1.067a2.67 2.67 0 0 0-2.666-2.666h-6.4v-2.742a14.784 14.784 0 0 0 10.166-1.502l-.077.039.818.823a.534.534 0 0 0 .376.16.536.536 0 0 0 .373-.155l1.512-1.504a.535.535 0 0 0 0-.754zM23.28 6.233a1.067 1.067 0 1 1 .752 1.823h-.004a1.066 1.066 0 0 1-.747-1.822h-.002zm-1.256 3.504-.598 2.946-1.175-1.183 1.774-1.763zm-.605-.902-1.92 1.909-1.486-1.493 3.406-.416zM24.004 28.8a1.6 1.6 0 0 1 1.6 1.6v.534H2.138V30.4a1.6 1.6 0 0 1 1.6-1.6h20.267zm-7.466-2.134v1.067h-5.334v-1.067h5.334zM11.204 25.6v-4.053c0-1.294 1.196-2.346 2.667-2.346s2.667 1.053 2.667 2.346V25.6h-5.334zm6.4-1.696v-2.357c0-1.882-1.675-3.413-3.733-3.413h-.058c-1.353 0-2.54.707-3.213 1.771l-.009.016a13.817 13.817 0 0 1-3.812-9.55c0-2.314.567-4.496 1.569-6.414l-.036.077 18.602 18.709c-1.823.947-3.979 1.502-6.266 1.502-1.079 0-2.128-.124-3.136-.357l.093.018zm11.289-.684L7.836 2.039l.754-.752 7.935 7.98c.004 0 .006.007.01.01l13.114 13.191-.757.752z"/><path fill="#2196f3" style="fill:var(--color2, #2196f3)" d="M13.876 20.266h-.007a1.6 1.6 0 0 0-.003 3.2h.007a1.6 1.6 0 0 0 .002-3.2zm.373 1.979a.534.534 0 1 1-.378-.912.533.533 0 0 1 .374.911h.005z"/></symbol><symbol id="icon-astronaut-1" viewBox="0 0 32 32"><path fill="#2196f3" style="fill:var(--color2, #2196f3)" d="M31.974 4.524a.535.535 0 0 0-.427-.362h-.003l-1.911-.278-.855-1.731c-.179-.365-.777-.365-.956 0l-.855 1.731-1.911.278a.534.534 0 0 0-.296.91l1.383 1.348-.326 1.903a.532.532 0 0 0 .774.562l1.709-.899 1.709.899a.534.534 0 0 0 .773-.565v.003l-.326-1.903 1.383-1.348a.535.535 0 0 0 .134-.55l.001.004zm-2.463 1.327a.53.53 0 0 0-.153.472l.191 1.114-1-.526a.525.525 0 0 0-.501.001l.003-.001-1 .526.191-1.114a.53.53 0 0 0-.152-.472l-.811-.79 1.119-.162a.532.532 0 0 0 .402-.292l.5-1.013.5 1.013a.532.532 0 0 0 .402.292l1.119.162-.809.79zm-3.377 14.671h-1.067v1.067h1.067v-1.067zm0 2.134h-1.067v1.066h1.067v-1.066zm1.066-1.067h-1.067v1.067H27.2v-1.067zm-2.133 0H24v1.067h1.067v-1.067zm-2.667 4.8h-1.067v1.067H22.4v-1.067zm0 2.134h-1.067v1.067H22.4v-1.067zm1.067-1.067H22.4v1.067h1.067v-1.067zm-2.133 0h-1.067v1.067h1.067v-1.067zM16 24.256h-1.066v1.067H16v-1.067zm0 2.133h-1.066v1.067H16v-1.067zm1.067-1.067H16v1.067h1.067v-1.067zm-2.133 0h-1.067v1.067h1.067v-1.067zm-9.067-19.2H4.801v1.066h1.066V6.122zm0 2.134H4.801v1.066h1.066V8.256zm1.066-1.067H5.866v1.067h1.066V7.189zm-2.133 0H3.733v1.067H4.8V7.189z"/><path fill="#212121" style="fill:var(--color1, #212121)" d="M24.715 14.16a1.776 1.776 0 0 0-1.179-.703l-.009-.001a1.769 1.769 0 0 0-1.344.355l.004-.003-1.253.96-1.898 1.417-1.358-.541c2.421-1.086 4.113-3.508 4.113-6.32 0-3.823-3.122-6.934-6.961-6.934S7.869 5.5 7.869 9.324c0 1.386.415 2.674 1.12 3.759l-2.768-.024c-.009 0-.016.005-.023.005a.511.511 0 0 0-.159.033l.004-.001c-.013.005-.026.007-.038.013-.006.003-.013.003-.019.006l-3.233 1.596-.001.001-1.893.91a.5.5 0 0 0-.065.036l.001-.001a1.782 1.782 0 0 0-.594 2.306l-.005-.01c.22.424.592.742 1.043.885l.013.003a1.772 1.772 0 0 0 1.388-.133l-.009.005 1.388-.738 2.264-1.169 1.357-.008-5.442 5.415-.001.001-1.339 1.333a1.643 1.643 0 0 0-.491 1.173v.005a1.668 1.668 0 0 0 1.667 1.664h.002a1.67 1.67 0 0 0 1.18-.485l1.314-1.309 1.741-1.3.901.897L4.07 27.28a1.643 1.643 0 0 0-.491 1.173v.004a1.662 1.662 0 0 0 1.666 1.664h.003a1.67 1.67 0 0 0 1.18-.485l4.488-4.472c.007-.006.016-.009.022-.016l5.166-5.658 3.471.494a.474.474 0 0 0 .262-.032c.017-.006.032-.015.049-.023.019-.01.039-.015.058-.027l3.213-2.133c.012-.008.018-.021.029-.03.013-.01.029-.014.041-.026l1.271-1.191c.348-.326.564-.787.564-1.3 0-.4-.132-.769-.355-1.066l.003.005zM2.13 17.77a.706.706 0 0 1-.564.05l.005.001a.717.717 0 0 1-.215-1.258l.002-.001 1.314-.632.316.924.133.389-.992.527zm3.497-1.828-1.548.8-.255-.746-.184-.537 2.027-1.001-.04 1.484zm15.1-6.62c0 .918-.219 1.785-.599 2.56l-4.181-1.899a1.865 1.865 0 0 0-.782-1.384l-.006-.004 1.464-4.861c2.377.757 4.104 2.975 4.104 5.588zm-11.789 0c0-3.235 2.644-5.867 5.894-5.867.253 0 .5.022.745.053l-1.432 4.753c-.019 0-.037-.006-.057-.006h-.001a1.872 1.872 0 0 0-1.872 1.867 1.873 1.873 0 0 0 1.872 1.867h.001c.695 0 1.295-.383 1.618-.944l3.863 1.755a5.891 5.891 0 0 1-4.737 2.39c-3.25 0-5.894-2.632-5.894-5.867zm5.957.8c0 .441-.362.8-.806.8h-.001a.804.804 0 0 1-.804-.8c0-.441.361-.8.806-.8s.806.359.806.8zM2.464 25.146a.606.606 0 0 1-.855.001.591.591 0 0 1 0-.844l.962-.959.852.848-.959.954zm3.214 3.734a.606.606 0 0 1-.855.001.591.591 0 0 1 0-.844l.963-.959.852.848-.96.955zm3.482-3.469-.001.001-1.765 1.76-.852-.848 1.765-1.757a.527.527 0 0 0 .09-.136c.007-.014.02-.026.026-.04.016-.041.019-.085.026-.128.003-.025.014-.048.014-.073 0-.035-.013-.07-.02-.105-.006-.032-.006-.064-.019-.096a.536.536 0 0 0-.092-.138c-.01-.012-.014-.026-.025-.038h-.001l-.001-.002-1.607-1.6c-.017-.017-.039-.024-.058-.038a.491.491 0 0 0-.084-.056l-.003-.001a.527.527 0 0 0-.09-.031l-.003-.001a.502.502 0 0 0-.101-.02h-.025a.603.603 0 0 0-.075.005h.003c-.036.005-.069.009-.104.021s-.064.027-.094.045c-.02.011-.043.015-.061.029l-1.774 1.324-.901-.897 2.399-2.386 4.36 4.289-.928.919zm6.819-7.017c-.016-.002-.03.004-.046.003l-.027-.001a.562.562 0 0 0-.092.008h.003a.484.484 0 0 0-.187.07l.002-.001a.492.492 0 0 0-.083.061c-.013.011-.028.016-.04.029l-4.698 5.146-4.328-4.256 2.833-2.818a.535.535 0 0 0-.378-.911h-.002l-2.219.013.028-1.607 3.104.027a6.928 6.928 0 0 0 4.978 2.101h.003c.438 0 .864-.046 1.28-.122.04.032.08.064.129.085l2.41.96.152.758.178.886-3.003-.427zm4.041.178-.313-1.558 1.446-1.08.946 1.257-2.08 1.381zm3.753-2.831-.837.785-.931-1.236.831-.637a.735.735 0 0 1 .543-.143.718.718 0 0 1 .621.71.71.71 0 0 1-.226.521z"/><path fill="#212121" style="fill:var(--color1, #212121)" d="m13.602 18.544-2.143-2.134a.53.53 0 0 0-.752 0l-2.143 2.133a.535.535 0 0 0 0 .756l2.142 2.134a.53.53 0 0 0 .752 0l2.143-2.134a.532.532 0 0 0 0-.756zm-2.519 1.759-1.387-1.381 1.386-1.381 1.387 1.381-1.387 1.381zm6.081-15.232-.258 1.036c.071.018 1.738.452 1.738 2.149h1.067c0-2.017-1.666-2.965-2.547-3.184zm2.547 4.251h-1.067v1.066h1.067V9.322z"/></symbol><symbol id="icon-clock" viewBox="0 0 32 32"><path fill="#212121" style="fill:var(--color1, #212121)" d="M31.296 15.301C31.295 6.849 24.441-.002 15.988 0S.685 6.855.687 15.308c.002 6.788 4.422 12.543 10.541 14.545l.108.031a.667.667 0 0 0 .529-.065.636.636 0 0 0 .283-.357l3.865-12.25a1.913 1.913 0 1 0-.852-3.63l.011-.005-5.106-5.107a.638.638 0 0 0-.902.902l5.103 5.109a1.847 1.847 0 0 0-.191.826c0 .602.283 1.137.723 1.48l.004.003-3.682 11.673C3.843 25.782.117 17.709 2.797 10.431S13.551-.573 20.829 2.108c7.278 2.681 11.004 10.754 8.323 18.032-1.345 3.581-4.003 6.406-7.374 7.938l-.088.036-.398-1.874a.639.639 0 0 0-1.05-.343l.001-.001-3.837 3.426a.637.637 0 0 0 .227 1.083l.005.001 4.899 1.563a.637.637 0 0 0 .818-.744l.001.004-.391-1.839c5.528-2.374 9.329-7.772 9.329-14.057v-.034.002zm-15.304-.637a.638.638 0 0 1 0 1.276.638.638 0 0 1 0-1.276zm2.1 14.864 2.184-1.948.603 2.84-2.787-.892z"/><path fill="#2196f3" style="fill:var(--color2, #2196f3)" d="M15.354 3.185V4.46a.638.638 0 0 0 1.276 0V3.185a.638.638 0 1 0-1.276 0zM3.876 14.664a.638.638 0 0 0 0 1.276h1.275a.638.638 0 0 0 0-1.276H3.876zm24.232 1.275a.638.638 0 0 0 0-1.276h-1.275a.638.638 0 0 0 0 1.276h1.275z"/></symbol><symbol id="icon-diagram-1" viewBox="0 0 32 32"><path fill="#2196f3" style="fill:var(--color2, #2196f3)" d="M14.926 14.945h1.066v4.798h-1.066v-4.798zm4.264 2.133h1.066v2.665H19.19v-2.665zm-8.529 1.599h1.066v1.066h-1.066v-1.066zm-3.198-.534h1.066v1.599H7.463v-1.599z"/><path fill="#212121" style="fill:var(--color1, #212121)" d="M1.599 28.271h25.586a1.6 1.6 0 0 0 1.599-1.599V24.54a1.6 1.6 0 0 0-1.599-1.599h-.533V9.647l3.028-2.868a1.608 1.608 0 1 0-.742-.752l-.004-.01-2.281 2.162v-1.23a1.6 1.6 0 0 0-1.599-1.599H3.731a1.6 1.6 0 0 0-1.599 1.599v15.992h-.533A1.6 1.6 0 0 0 0 24.54v2.132a1.6 1.6 0 0 0 1.599 1.599zM30.384 4.817a.533.533 0 0 1 0 1.066.533.533 0 0 1 0-1.066zM3.198 6.949c0-.294.239-.533.533-.533h21.323c.294 0 .533.239.533.533v2.239l-1.066 1.013V8.016a.534.534 0 0 0-.534-.534H4.798a.534.534 0 0 0-.534.533v13.327c0 .294.239.533.534.533h19.189a.534.534 0 0 0 .534-.533v-9.675l1.066-1.01V22.94H3.198V6.949zm4.798 6.93h-.005a1.6 1.6 0 1 0 1.112 2.748l1.853.93a.535.535 0 0 0 .636-.122l3.939-4.432 3.872 2.902a.534.534 0 0 0 .686-.039l3.365-3.188v8.131H5.331V8.548h18.123v2.661l-3.771 3.572-3.904-2.927a.534.534 0 0 0-.718.071v.001l-3.993 4.493-1.493-.746c.011-.064.017-.128.02-.193a1.6 1.6 0 0 0-1.599-1.599zm.533 1.599a.533.533 0 0 1-1.066 0 .533.533 0 0 1 1.066 0zm3.198 8.529h5.33v.533a.533.533 0 0 1-.533.533h-4.265a.533.533 0 0 1-.533-.533v-.533zm-10.66.533c0-.294.238-.533.533-.533h9.062v.533a1.6 1.6 0 0 0 1.599 1.599h4.265a1.6 1.6 0 0 0 1.599-1.599v-.533h9.062c.294 0 .533.239.533.533v2.132a.533.533 0 0 1-.533.533H1.601a.533.533 0 0 1-.533-.533V24.54z"/></symbol><symbol id="icon-envelope" viewBox="0 0 43 32"><path d="M38.667 0H4C1.795 0 0 1.795 0 4v24c0 2.205 1.795 4 4 4h34.667c2.205 0 4-1.795 4-4V4c0-2.205-1.795-4-4-4zm0 2.667c.181 0 .355.037.512.104L21.334 18.238 3.489 2.771c.151-.065.327-.104.512-.104h34.667zm0 26.666H4A1.333 1.333 0 0 1 2.667 28V5.587l17.792 15.421c.233.203.539.327.875.327s.642-.124.876-.328l-.002.001L40 5.587V28c0 .736-.597 1.333-1.333 1.333z"/></symbol><symbol id="icon-facebook" viewBox="0 0 16 32"><path d="M13.329 5.313h2.921V.225C15.746.156 14.013 0 11.994 0 7.782 0 4.897 2.649 4.897 7.519V12H.249v5.688h4.648V32h5.699V17.689h4.46l.708-5.688h-5.169V8.082c.001-1.644.444-2.769 2.735-2.769z"/></symbol><symbol id="icon-instagram" viewBox="0 0 32 32"><path d="M31.968 9.408c-.074-1.701-.349-2.869-.742-3.882a7.839 7.839 0 0 0-1.85-2.837l-.001-.001A7.906 7.906 0 0 0 26.597.861l-.054-.018C25.524.449 24.362.176 22.661.101 20.949.019 20.405 0 16.059 0c-4.344 0-4.888.019-6.595.094-1.699.074-2.869.349-3.88.742a7.847 7.847 0 0 0-2.839 1.85l-.001.001A7.9 7.9 0 0 0 .919 5.465l-.018.054C.506 6.538.232 7.7.157 9.401c-.082 1.712-.101 2.256-.101 6.602 0 4.344.019 4.888.094 6.595.075 1.701.35 2.869.744 3.882a7.915 7.915 0 0 0 1.849 2.837l.001.001c.8.813 1.77 1.443 2.832 1.843 1.019.395 2.182.67 3.882.744 1.707.075 2.251.094 6.595.094 4.346 0 4.89-.019 6.595-.094 1.701-.074 2.869-.349 3.882-.742a8.237 8.237 0 0 0 4.664-4.628l.019-.055c.394-1.019.669-2.182.744-3.882.075-1.707.093-2.251.093-6.595s-.006-4.888-.08-6.595zm-2.88 13.066c-.07 1.563-.333 2.406-.55 2.97a5.341 5.341 0 0 1-3.004 3.024l-.036.012c-.56.219-1.411.482-2.968.55-1.688.075-2.194.094-6.464.094-4.269 0-4.782-.019-6.464-.094-1.563-.069-2.406-.331-2.97-.55a4.953 4.953 0 0 1-1.836-1.192l-.001-.001a4.978 4.978 0 0 1-1.184-1.803L3.6 25.45c-.218-.563-.48-1.413-.549-2.97-.075-1.688-.094-2.195-.094-6.464 0-4.27.019-4.784.094-6.464.069-1.563.331-2.406.549-2.97a4.897 4.897 0 0 1 1.198-1.837l.002-.002a4.972 4.972 0 0 1 1.806-1.182l.034-.011c.56-.219 1.411-.48 2.968-.55 1.688-.074 2.195-.093 6.464-.093 4.275 0 4.782.019 6.464.093 1.563.069 2.406.331 2.97.55a4.91 4.91 0 0 1 1.837 1.194c.531.52.938 1.144 1.195 1.84.218.56.48 1.411.549 2.968.075 1.688.094 2.194.094 6.464 0 4.269-.019 4.768-.094 6.458z"/><path d="M16.059 7.782a8.223 8.223 0 0 0-8.219 8.221 8.223 8.223 0 0 0 16.442.008v-.009a8.223 8.223 0 0 0-8.221-8.221zm0 13.552a5.333 5.333 0 0 1 .001-10.666h.001a5.334 5.334 0 1 1 0 10.668zM26.525 7.458a1.92 1.92 0 0 1-3.84 0 1.92 1.92 0 0 1 3.84 0z"/></symbol><symbol id="icon-linkedin-1" viewBox="0 0 32 32"><path d="M27.423 27.429h.006v-8.384c0-4.101-.882-7.259-5.677-7.259-2.305 0-3.851 1.264-4.483 2.464h-.066v-2.081h-4.546v15.259h4.734v-7.555c0-1.99.377-3.914 2.841-3.914 2.427 0 2.464 2.271 2.464 4.041v7.43h4.728zM4.949 12.168h4.739v15.261H4.949V12.168zm2.368-7.597a2.745 2.745 0 0 0-2.745 2.745c0 1.514 1.23 2.77 2.745 2.77 1.514 0 2.744-1.255 2.744-2.77S8.832 4.572 7.317 4.571z"/></symbol><symbol id="icon-Logo" viewBox="0 0 22 32"><path d="m3.219 3.47 3.76 3.56-6.98-.004v17.272h18.244v-6.604l3.756 3.556V3.471H3.218zm14.86 13.805L7.417 7.182h10.662v10.093zm-3.311 4.495H2.886V10.155h.84v10.829h11.042v.786zm-9.075 4.827-.439.904-.439-.904h-.368l.641 1.205v.702h.333v-.702l.639-1.205h-.367zm.552 1.907.155-.444h.739l.156.444h.346l-.722-1.908h-.298l-.72 1.908h.345zm.523-1.502.276.791h-.553l.276-.791zm1.748.745a.43.43 0 0 0-.072.239v.003c0 .161.056.291.169.392s.265.15.453.15a.8.8 0 0 0 .488-.153l.107.127h.369l-.28-.332c.11-.15.165-.343.165-.578h-.276a.764.764 0 0 1-.08.35l-.368-.435.13-.094a.707.707 0 0 0 .196-.197l.002-.003a.415.415 0 0 0 .06-.217v-.01a.395.395 0 0 0-.133-.295.478.478 0 0 0-.322-.124h-.02.001c-.153 0-.276.044-.367.131s-.136.204-.136.354a.47.47 0 0 0 .043.19c.03.065.082.145.156.238a1.127 1.127 0 0 0-.284.263zm.861.422a.486.486 0 0 1-.301.107h-.015a.316.316 0 0 1-.213-.083.285.285 0 0 1-.086-.204v-.011.001c0-.102.053-.193.157-.273l.041-.029.416.491zm-.342-.845c-.09-.111-.135-.203-.135-.276 0-.064.019-.116.055-.158a.184.184 0 0 1 .14-.063h.015c.053 0 .1.02.136.054a.166.166 0 0 1 .056.127v.007a.234.234 0 0 1-.081.178l-.041.032-.145.1zm3.105 1.036a.69.69 0 0 0 .225-.476h-.33c-.018.136-.059.233-.124.292s-.164.088-.293.088c-.142 0-.251-.054-.325-.163s-.111-.266-.111-.472v-.169c.002-.204.041-.357.118-.463a.388.388 0 0 1 .333-.158c.124 0 .218.031.282.091s.105.159.121.296h.33c-.021-.209-.096-.37-.224-.485s-.298-.172-.509-.172a.773.773 0 0 0-.414.112.727.727 0 0 0-.272.312l-.002.005a1.094 1.094 0 0 0-.096.454v.023-.001.178c.003.175.035.329.098.463s.152.235.267.307a.748.748 0 0 0 .402.107c.217 0 .392-.056.523-.17zm1.948-.267c.064-.142.097-.306.097-.493v-.126c0-.17-.037-.331-.102-.476l.003.007a.737.737 0 0 0-.276-.32l-.003-.002c-.12-.075-.258-.113-.413-.113s-.293.038-.414.114a.747.747 0 0 0-.279.326 1.15 1.15 0 0 0-.098.469v.025-.001.107c.001.183.034.343.099.483.067.14.16.248.281.324a.77.77 0 0 0 .414.113.76.76 0 0 0 .414-.113.738.738 0 0 0 .277-.325zm-.355-1.079c.081.113.12.275.12.487v.099c0 .215-.04.378-.119.49a.387.387 0 0 1-.338.168h-.014a.397.397 0 0 1-.326-.171l-.001-.001c-.082-.114-.122-.276-.122-.486v-.11c.002-.205.043-.364.123-.475a.392.392 0 0 1 .323-.169h.014-.001c.147 0 .26.056.34.169z"/></symbol><symbol id="icon-Logo2" viewBox="0 0 25 32"><path d="M10.482 1.873h-.084a9.954 9.954 0 0 0-.386-.014h-.279c-.243 0-.491.006-.737.018l-.028-.001-.029.001h.001c-2.365.138-4.56.729-6.545 1.688l.103-.045-.265.127v13.562l.62-.211a23.588 23.588 0 0 1 1.723-.511c1.481-.396 3.187-.635 4.944-.658h.014v1.782c-.222.001-.437.007-.652.018h-.051a19.882 19.882 0 0 0-3.953.616l.138-.031a19.316 19.316 0 0 0-4.644 1.822l.1-.05V2.593A17.818 17.818 0 0 1 5.114.681L5.24.654A17.8 17.8 0 0 1 9.729.075h.265c.313.008.619.022.905.043.755.053 1.504.173 2.239.357v1.754a13.16 13.16 0 0 0-2.124-.324l-.045-.003-.045-.004a5.323 5.323 0 0 0-.443-.026zm3.087 1.792c.389.03.792.044 1.199.044a19.297 19.297 0 0 0 4.859-.637l-.134.03a19.368 19.368 0 0 0 4.643-1.823l-.1.051v17.083a17.901 17.901 0 0 1-4.642 1.912l-.127.028a17.893 17.893 0 0 1-4.49.578h-.114c-1.171 0-2.308-.147-3.393-.423l.095.02V3.334c.263.061.535.117.81.163.453.076.93.132 1.395.167zm8.693.133-.62.208a27.2 27.2 0 0 1-1.723.516c-1.543.413-3.316.654-5.145.66h-.004c-.404 0-.776-.011-1.136-.034l-.494-.032v13.951l.424.037c.393.035.799.052 1.208.052a16.45 16.45 0 0 0 4.17-.551l-.115.026a16.896 16.896 0 0 0 3.27-1.184l-.101.044.265-.127V3.798zM1.676 25.93a.91.91 0 0 0-.657-.279l-.034.001h.002-.014c-.139 0-.271.028-.391.077l.007-.002a.904.904 0 0 0-.508.51l-.002.006a.996.996 0 0 0-.071.385v2.324c-.006.163.026.326.091.476a.94.94 0 0 0 .233.312.805.805 0 0 0 .319.165c.113.031.23.048.347.048a.98.98 0 0 0 .963-.978v-.26h-.608v.221a.539.539 0 0 1-.037.197l.001-.004a.387.387 0 0 1-.088.131.43.43 0 0 1-.254.089.31.31 0 0 1-.285-.124l-.001-.001a.544.544 0 0 1-.081-.288v-.024.001-2.167a.732.732 0 0 1 .075-.347.31.31 0 0 1 .261-.142l.038.002H.98h.011c.106 0 .2.051.259.131l.001.001a.49.49 0 0 1 .101.299v.014-.001.201h.601v-.247c0-.143-.027-.279-.077-.404l.003.007a.973.973 0 0 0-.204-.328zm3.609-.026a1.046 1.046 0 0 0-1.054-.19.96.96 0 0 0-.554.509l-.002.006a1.083 1.083 0 0 0-.089.45v2.228c-.004.157.026.312.089.456.055.12.135.227.235.312a.948.948 0 0 0 .321.196 1.047 1.047 0 0 0 1.055-.197l-.001.001a.942.942 0 0 0 .229-.312c.062-.143.092-.299.089-.456v-2.248c0-.155-.033-.303-.092-.437l.003.007a1.016 1.016 0 0 0-.229-.325zm-.283 3.004.002.034a.4.4 0 0 1-.122.288.442.442 0 0 1-.573-.001h.001a.399.399 0 0 1-.12-.324v.002-2.229a.4.4 0 0 1 .12-.322.442.442 0 0 1 .573.001h-.001a.4.4 0 0 1 .122.287c0 .012 0 .024-.002.036v-.002 2.23zm5.023.996v-4.22h-.584l-.768 2.234h-.01l-.774-2.233h-.578v4.219h.603v-2.566h.011l.59 1.814h.301l.595-1.814h.011v2.566h.603zm3.424-3.924a.832.832 0 0 0-.341-.231 1.302 1.302 0 0 0-.414-.066h-.918v4.22h.601v-1.648h.309a1.1 1.1 0 0 0 .543-.115.881.881 0 0 0 .328-.319l.002-.004c.069-.112.116-.237.138-.368.021-.133.033-.286.033-.442v-.04.002a2.397 2.397 0 0 0-.059-.603.903.903 0 0 0-.222-.388zm-.31 1.286a.533.533 0 0 1-.057.223l.001-.003a.34.34 0 0 1-.153.147l-.002.001a.608.608 0 0 1-.252.054l-.033-.001h.002-.274v-1.435h.31l.029-.001a.58.58 0 0 1 .246.055l-.004-.002c.062.036.111.09.14.153l.001.002a.615.615 0 0 1 .053.235v.281c0 .098.006.2 0 .29h-.006zm3.158-1.582h-.493l-.93 4.22h.601l.176-.906h.82l.176.906h.601l-.952-4.22zm-.555 2.738.296-1.529h.011l.294 1.529h-.601zm4.44-.196h-.011l-.908-2.542h-.578v4.22h.601v-2.538h.012l.919 2.537h.566v-4.219h-.601v2.542zm3.673-2.542-.484 1.678h-.012l-.484-1.678h-.636l.826 2.436v1.783h.601V28.12l.826-2.436h-.637zM0 31.095h.29v.813h.197v-.813h.288v-.167H.001v.167zm2.436-.167-.38.98h.209l.081-.223h.391l.083.223h.214l-.39-.98h-.209zm-.031.592.133-.363.133.363h-.266zm2.439.026h.227v.126a.376.376 0 0 1-.233.083h-.014a.248.248 0 0 1-.194-.094.403.403 0 0 1-.073-.233l.001-.023v.001c0-.218.094-.327.282-.327l.021-.001c.096 0 .178.066.2.156v.002l.194-.038c-.042-.191-.179-.288-.415-.288h-.013a.491.491 0 0 0-.33.127.476.476 0 0 0-.14.378v-.002.023a.53.53 0 0 0 .127.345l-.001-.001a.476.476 0 0 0 .342.145l.032-.001h-.001.016a.584.584 0 0 0 .4-.157v-.386h-.424v.165zm2.459-.618h-.199v.98h.686v-.167h-.488v-.813zm2.079 0h-.198v.98h.198v-.98zm2.032.654-.401-.654h-.192v.98h.184v-.64l.394.64h.197v-.98h-.182v.655zm1.839-.106h.488v-.167h-.488v-.214h.525v-.167h-.723v.98h.744v-.167h-.545v-.265zm4.455-.162h-.386v-.386h-.196v.979h.196v-.429h.386v.429h.197v-.98h-.197v.386zm1.849.162h.49v-.167h-.49v-.214h.527v-.167h-.723v.98h.742v-.167h-.545v-.265zm2.507.001c.171-.027.257-.117.257-.273a.23.23 0 0 0-.095-.218h-.001a.548.548 0 0 0-.249-.059c-.013 0-.027 0-.04.002h.002-.415v.979h.197v-.41h.054c.039 0 .075.008.108.023l-.002-.001a.201.201 0 0 1 .07.072l.214.311h.235l-.119-.191a.689.689 0 0 0-.214-.234l-.002-.002zm-.199-.136h-.145v-.246h.155a.512.512 0 0 1 .203.024l-.004-.001a.13.13 0 0 1 .043.096c0 .042-.02.08-.052.103a.533.533 0 0 1-.164.024l-.038-.001h.002zm2.09.135h.488v-.167h-.488v-.214h.527v-.167h-.725v.98h.744v-.167h-.545v-.265z"/></symbol><symbol id="icon-Logo3" viewBox="0 0 32 32"><path d="M4.952 30.586c.012 0 .024.003.034.007s.021.01.029.018l.161.153a1.334 1.334 0 0 1-.452.292 1.715 1.715 0 0 1-.599.105l-.044-.001h.002a1.68 1.68 0 0 1-.602-.098 1.326 1.326 0 0 1-.455-.276l.001.001a1.216 1.216 0 0 1-.289-.418l-.003-.008a1.4 1.4 0 0 1-.103-.531v-.016.001-.028c0-.375.163-.712.421-.944l.001-.001c.137-.12.301-.214.482-.278.198-.066.409-.099.621-.097h.038c.192 0 .377.033.549.092l-.012-.004c.159.06.305.144.432.247l-.135.163a.15.15 0 0 1-.033.029h-.001a.092.092 0 0 1-.047.013H4.94a.135.135 0 0 1-.06-.017h.001l-.071-.044-.101-.056a1.08 1.08 0 0 0-.31-.096l-.006-.001a1.396 1.396 0 0 0-.222-.018h-.018.001-.015c-.154 0-.303.027-.44.077l.009-.003a1.042 1.042 0 0 0-.351.207l.001-.001a.94.94 0 0 0-.227.328 1.08 1.08 0 0 0-.082.417v.016-.001.018c0 .152.03.297.085.429l-.003-.008a.954.954 0 0 0 .223.326.913.913 0 0 0 .334.202c.131.047.271.071.413.07a1.82 1.82 0 0 0 .245-.014.97.97 0 0 0 .531-.226l-.001.001a.126.126 0 0 1 .076-.028zm4.638-.77v.016c0 .19-.04.371-.112.535l.003-.009a1.18 1.18 0 0 1-.301.42l-.001.001a1.366 1.366 0 0 1-.465.273l-.01.003a1.953 1.953 0 0 1-1.234-.004l.014.004a1.414 1.414 0 0 1-.473-.279l.001.001a1.218 1.218 0 0 1-.302-.418l-.003-.008a1.407 1.407 0 0 1 .004-1.095l-.003.009c.068-.159.172-.304.306-.427.134-.117.295-.208.471-.267a1.9 1.9 0 0 1 1.234.004l-.014-.004c.178.063.339.157.473.277.133.122.236.265.303.42.074.175.111.36.108.546zm-.422 0v-.023a1.16 1.16 0 0 0-.079-.422l.003.008a.907.907 0 0 0-.547-.53l-.006-.002a1.421 1.421 0 0 0-.898.002l.01-.003a.954.954 0 0 0-.34.207.874.874 0 0 0-.215.32l-.002.006a1.266 1.266 0 0 0 .002.881l-.003-.009a.893.893 0 0 0 .55.528l.006.002c.286.093.601.093.887 0a.955.955 0 0 0 .339-.204.926.926 0 0 0 .215-.326c.054-.14.079-.288.077-.436zm3.586.457.043.097c.015-.035.029-.066.046-.097a.9.9 0 0 1 .054-.099l-.002.004 1.026-1.621c.021-.028.038-.046.059-.051s.045-.009.07-.009h.014-.001.303v2.636h-.359v-2.02l-.002-.046.002-.048v.002l-1.033 1.643a.148.148 0 0 1-.06.059h-.001a.178.178 0 0 1-.087.022H12.764a.171.171 0 0 1-.087-.023h.001a.146.146 0 0 1-.059-.059v-.001l-1.063-1.654v2.115h-.347v-2.63h.317c.025 0 .049.003.072.01h-.002a.116.116 0 0 1 .056.051l1.048 1.622a.566.566 0 0 1 .051.091l.001.004zm3.86-.131v.987h-.401v-2.632h.895c.169-.003.337.017.5.057.13.032.25.088.353.164a.682.682 0 0 1 .199.253l.002.004a.776.776 0 0 1 .068.337v.016a.73.73 0 0 1-.289.583l-.002.001a1.037 1.037 0 0 1-.356.174 1.652 1.652 0 0 1-.452.061h-.033l-.484-.007zm0-.283h.486a1.12 1.12 0 0 0 .311-.04.661.661 0 0 0 .226-.115l-.002.001a.503.503 0 0 0 .184-.39v-.006l.001-.028a.447.447 0 0 0-.042-.189l.001.003a.515.515 0 0 0-.139-.179l-.001-.001a.855.855 0 0 0-.544-.141h.003-.486v1.085zm5.396 1.273h-.323a.148.148 0 0 1-.083-.025h.001a.18.18 0 0 1-.053-.06v-.001l-.272-.636h-1.372l-.283.636a.15.15 0 0 1-.136.085h-.322l1.205-2.636h.418l1.221 2.636zm-1.988-.979h1.132l-.477-1.073a1.88 1.88 0 0 1-.091-.247l-.046.138a.972.972 0 0 1-.044.112l-.473 1.071zm3.723-1.644a.172.172 0 0 1 .06.046l1.757 1.987v-2.046h.359v2.636H25.716a.19.19 0 0 1-.079-.017h.001a.244.244 0 0 1-.065-.048l-1.754-1.985.001.045a.708.708 0 0 1-.002.047v-.002 1.959h-.359v-2.636h.213c.024 0 .049.004.072.012zm5.135 1.575v1.046h-.401v-1.046l-1.11-1.587h.368a.14.14 0 0 1 .078.023h-.001a.258.258 0 0 1 .055.06l.694 1.024c.028.044.052.084.072.122s.037.075.051.111l.052-.113a1.19 1.19 0 0 1 .068-.12l.685-1.031a.304.304 0 0 1 .051-.056.134.134 0 0 1 .079-.026h.371l-1.112 1.594zm-16.325-6.01c.175.019.351.035.53.049 2.709-1.053 5-2.776 6.588-4.954s2.401-4.715 2.339-7.292l-2.985-2.593c.607 2.744.323 5.581-.82 8.194s-3.1 4.896-5.653 6.597z"/><path d="m11.489 23.953.08.015c2.727-1.696 4.806-4.062 5.968-6.795s1.355-5.706.552-8.534l-4.252-3.694c1.719 3.037 2.412 6.435 1.995 9.8-.415 3.365-1.922 6.558-4.344 9.208zm14.42-9.032c-.722 2.833-2.477 5.387-5.002 7.284a15.685 15.685 0 0 1-2.288 1.44l-.089.042c2.057-.525 3.947-1.454 5.526-2.714s2.803-2.819 3.578-4.556L25.91 14.92z"/><path d="m25.233 14.505-2.455-2.133c-.047 2.432-.843 4.809-2.305 6.883s-3.537 3.771-6.008 4.913h.012c.551 0 1.101-.029 1.648-.085 2.31-.82 4.351-2.123 5.94-3.794s2.678-3.658 3.168-5.784zM11.844 3.386 8.915.838c-2.618.879-4.87 2.425-6.461 4.434S.008 9.661 0 12.101c.01 2.695 1.054 5.31 2.967 7.432 1.912 2.121 4.585 3.628 7.594 4.281 2.686-2.844 4.26-6.357 4.49-10.031s-.893-7.315-3.207-10.397zM32 14.112c-.01-3.197-1.477-6.261-4.079-8.522s-6.129-3.535-9.809-3.545h-.029c-1.768 0-3.468.294-5.053.837l.11-.033 17.933 15.582a10.4 10.4 0 0 0 .928-4.319v-.001z"/></symbol><symbol id="icon-Logo4" viewBox="0 0 37 32"><path d="M7.079 11.741h-.002c-1.291 0-2.338.93-2.338 2.078v.002c0 1.148 1.047 2.078 2.338 2.078h.002c1.291 0 2.338-.931 2.338-2.078v-.001c0-1.148-1.047-2.079-2.338-2.079zm17.258-.664c-.004-1.594-.718-3.122-1.986-4.249s-2.987-1.762-4.78-1.766c-1.794.003-3.514.638-4.783 1.765s-1.983 2.655-1.987 4.25v8.79s13.534-1.34 13.536-8.788v-.002zM0 22.752c.003 1.109.501 2.172 1.383 2.956s2.078 1.226 3.326 1.229c1.248-.003 2.443-.445 3.326-1.229s1.38-1.846 1.383-2.955v-6.116S.001 17.57.001 22.752zm4.708 1.095a1.34 1.34 0 0 1-.685-.185 1.146 1.146 0 0 1-.451-.485l-.003-.007a.973.973 0 0 1-.069-.64l-.001.007c.047-.213.165-.408.337-.561s.392-.258.631-.3a1.372 1.372 0 0 1 .722.065l-.01-.003c.226.083.418.224.554.404s.208.392.208.608a.982.982 0 0 1-.093.421c-.067.14-.157.259-.266.355l-.001.001c-.114.102-.25.183-.401.239-.14.053-.302.084-.472.084h-.001v-.004zm9.518-.603h-.909v.939h-.473v-2.298h1.496v.383h-1.023v.593h.909v.382zm2.274-.158c0 .226-.04.424-.12.595s-.195.302-.345.395a.937.937 0 0 1-.493.139h-.018.001a.959.959 0 0 1-.51-.137.915.915 0 0 1-.344-.386l-.002-.006a1.325 1.325 0 0 1-.125-.567v-.021.001-.113c0-.226.04-.425.121-.597a.907.907 0 0 1 .857-.535.907.907 0 0 1 .855.535c.082.171.123.369.123.595v.102zm-.479-.104c0-.241-.043-.424-.129-.549a.422.422 0 0 0-.351-.188h-.019.001-.018a.42.42 0 0 0-.349.185l-.001.001c-.086.123-.13.304-.131.543v.112c0 .234.043.416.129.546s.21.194.373.194h.019a.417.417 0 0 0 .347-.185l.001-.001c.085-.125.128-.307.129-.546v-.112zm2.014.598v-.013a.24.24 0 0 0-.094-.191h-.001a1.208 1.208 0 0 0-.341-.151 2.489 2.489 0 0 1-.403-.164l.014.006c-.261-.141-.391-.331-.391-.57 0-.124.034-.235.104-.331a.691.691 0 0 1 .302-.229c.131-.054.279-.082.442-.082.164 0 .31.03.439.09a.683.683 0 0 1 .298.251.652.652 0 0 1 .108.369h-.474c0-.105-.032-.187-.099-.244a.404.404 0 0 0-.279-.088.436.436 0 0 0-.27.074.228.228 0 0 0-.096.187v.006c0 .075.038.137.112.188.075.05.187.097.333.142.269.081.465.181.589.302s.185.269.185.448c0 .199-.075.355-.226.468s-.352.169-.607.169c-.177 0-.338-.032-.483-.097a.778.778 0 0 1-.331-.264l-.002-.002a.678.678 0 0 1-.113-.377v-.015.001h.474c0 .253.151.38.454.38a.45.45 0 0 0 .264-.068.225.225 0 0 0 .094-.183v-.009zm2.526-1.311h-.703v1.914h-.474v-1.914h-.693v-.383h1.871v.383zm1.653.918h-.908v.616h1.066v.38h-1.54v-2.298h1.537v.383h-1.064v.548h.909v.37zm1.286.155h-.377v.841h-.473v-2.298h.854c.271 0 .481.061.628.181s.221.292.221.513a.709.709 0 0 1-.102.393.699.699 0 0 1-.303.248l-.005.002.496.939v.022h-.508l-.431-.84zm-.377-.384h.382a.4.4 0 0 0 .276-.089.327.327 0 0 0 .098-.233v-.018.001c0-.109-.031-.194-.093-.256s-.155-.093-.283-.093h-.38v.689zm2.868.415v.809h-.473v-2.298h.896c.172 0 .324.032.454.095a.694.694 0 0 1 .303.27c.07.116.106.248.106.396a.662.662 0 0 1-.232.533c-.154.129-.367.194-.639.194h-.415zm0-.383h.423c.125 0 .221-.03.285-.088.067-.059.1-.143.1-.253v-.017a.376.376 0 0 0-.1-.256.373.373 0 0 0-.275-.107h-.434v.722zm2.994.197h-.908v.616h1.066v.38h-1.54v-2.298h1.537v.383h-1.064v.548h.909v.37zm2.197-.918h-.704v1.914h-.473v-1.914h-.694v-.383h1.871v.383zm1.653.918h-.908v.616h1.066v.38h-1.54v-2.298h1.537v.383h-1.063v.548h.908v.37zm1.286.155h-.377v.841h-.474v-2.298h.854c.271 0 .48.061.628.181s.221.292.221.513a.709.709 0 0 1-.102.393.704.704 0 0 1-.303.248l-.005.002.497.939v.022h-.508l-.431-.84zm-.377-.384h.382c.118 0 .211-.03.276-.089a.324.324 0 0 0 .098-.234v-.018.001a.345.345 0 0 0-.093-.256c-.061-.062-.155-.093-.282-.093h-.38v.689zm2.781.622v-.013a.239.239 0 0 0-.095-.191h-.001a1.208 1.208 0 0 0-.341-.151 2.489 2.489 0 0 1-.403-.164l.014.006c-.261-.141-.391-.331-.391-.57 0-.124.035-.235.104-.331a.691.691 0 0 1 .302-.229c.131-.054.279-.082.442-.082.164 0 .31.03.439.09a.683.683 0 0 1 .298.251.652.652 0 0 1 .108.369h-.474c0-.105-.032-.187-.099-.244a.404.404 0 0 0-.279-.088.436.436 0 0 0-.27.074.229.229 0 0 0-.097.187v.005c0 .075.038.137.113.188s.187.097.333.142c.269.081.465.181.589.302s.185.269.185.448c0 .199-.075.355-.226.468s-.353.169-.607.169c-.177 0-.338-.032-.483-.097a.778.778 0 0 1-.331-.264l-.002-.002a.678.678 0 0 1-.113-.377v-.015.001h.474c0 .253.151.38.454.38.113 0 .2-.023.263-.068a.224.224 0 0 0 .095-.184v-.009z"/></symbol><symbol id="icon-Logo5" viewBox="0 0 34 32"><path d="M2.548 24.17c.131.148.2.333.197.523l.001.04a.76.76 0 0 1-.073.327l.002-.005a.848.848 0 0 1-.233.298l-.002.001a1.393 1.393 0 0 1-.889.241h.004-1.556v-3.316h1.523a1.38 1.38 0 0 1 .849.223l-.005-.003a.764.764 0 0 1 .228.279.715.715 0 0 1 .068.343.727.727 0 0 1-.177.507.84.84 0 0 1-.464.259.896.896 0 0 1 .525.284zm-1.824-.501h.651a.659.659 0 0 0 .414-.11.402.402 0 0 0 .11-.145l.001-.003a.361.361 0 0 0 .03-.145l-.001-.033v.001l.001-.028a.377.377 0 0 0-.031-.151l.001.002a.402.402 0 0 0-.108-.147h-.001a.669.669 0 0 0-.374-.114l-.054.002h.002-.641v.87zm1.129 1.272a.415.415 0 0 0 .119-.15l.001-.003a.375.375 0 0 0 .035-.159l-.001-.027v.001l.001-.024a.388.388 0 0 0-.037-.166l.001.002a.432.432 0 0 0-.121-.152l-.001-.001a.71.71 0 0 0-.399-.121l-.046.001h.002-.683v.912h.692a.733.733 0 0 0 .437-.115zm3.809.655L4.815 24.3h-.319v1.296h-.729V22.28h1.38a1.44 1.44 0 0 1 .964.285l-.004-.003a1.015 1.015 0 0 1 .33.739.994.994 0 0 1-.229.636l.001-.002a1.146 1.146 0 0 1-.652.336l-.006.001.903 1.325h-.793zm-1.166-1.749h.596c.414 0 .621-.167.621-.502l.001-.027a.451.451 0 0 0-.036-.177l.001.003a.498.498 0 0 0-.118-.172.683.683 0 0 0-.471-.134h.003-.603l.007 1.009zm5.151 1.081H8.194l-.257.668h-.764l1.334-3.279h.827l1.328 3.279h-.764l-.251-.667zm-.194-.502-.531-1.4-.531 1.4h1.062zm5.182 1.17h-.723l-1.623-2.255v2.255h-.722v-3.317h.722l1.623 2.268v-2.268h.723v3.317zm4.131-.794c-.15.25-.378.454-.655.585-.281.132-.611.21-.959.21l-.062-.001h.003-1.288V22.28h1.288l.061-.001c.347 0 .676.075.972.21l-.015-.006c.277.129.505.33.655.579.149.27.227.568.227.87s-.078.6-.227.87zm-.828-.08c.196-.206.318-.484.32-.791 0-.29-.114-.571-.32-.791a1.32 1.32 0 0 0-.91-.282h.004-.502v2.147h.502a1.324 1.324 0 0 0 .909-.284l-.003.002zM10.1 3.832s9.341 3.229 9.143 7.901v7.903s-9.334-3.23-9.14-7.903L10.1 3.831zm17.465 13.954a13.55 13.55 0 0 1 5.935-2.002v-2.475c-2.454.867-4.537 2.437-5.935 4.477z"/><path d="M26.505 18.532c1.444-2.662 3.947-4.716 6.995-5.741V5.662s-13.303 4.6-13.022 11.254v11.252s.593-.206 1.526-.591c0-.359 0-.723.043-1.087.275-3.089 1.879-5.951 4.459-7.958z"/><path d="M25.24 22.712c.07-.78.226-1.552.465-2.304-1.606 1.733-2.579 3.884-2.781 6.149a9.14 9.14 0 0 0-.036.648c1.11-.485 1.95-.899 2.773-1.34l-.214.105a10.686 10.686 0 0 1-.207-3.258zm.529.04a10.272 10.272 0 0 0 .176 3.017l-.012-.066c3.634-1.992 7.719-5.068 7.561-8.786v-.324c-2.597.266-5.026 1.305-6.915 2.958a10.068 10.068 0 0 0-.808 3.162l-.003.04z"/></symbol><symbol id="icon-Logo6" viewBox="0 0 50 32"><path d="M25.282 15.296a1.563 1.563 0 0 1-.322-1.065v.005-1.537c0-.471.107-.829.321-1.074.213-.245.581-.367 1.101-.366.489 0 .836.104 1.041.313.224.266.333.591.308.919v.361h-.874v-.366a1.799 1.799 0 0 0-.026-.358.34.34 0 0 0-.125-.212l-.001-.001a.499.499 0 0 0-.279-.084l-.039.001h.002l-.038-.001a.53.53 0 0 0-.297.09l.002-.001a.415.415 0 0 0-.145.232v.003a1.736 1.736 0 0 0-.035.35v.031-.002 1.865c-.014.18.025.36.112.523.045.056.104.1.172.126l.003.001a.48.48 0 0 0 .228.029h-.002a.473.473 0 0 0 .311-.086l-.002.001a.37.37 0 0 0 .13-.224v-.002c.02-.124.03-.249.027-.374v-.378h.875v.345a1.404 1.404 0 0 1-.304.969l.002-.003c-.201.228-.544.342-1.047.342s-.884-.122-1.099-.375zm3.642.016c-.221-.24-.332-.588-.332-1.049v-1.617c0-.457.11-.802.332-1.037s.59-.351 1.108-.35c.514 0 .882.117 1.103.35.221.235.333.58.333 1.037v1.616c0 .457-.112.807-.337 1.048s-.59.361-1.099.361-.885-.122-1.109-.359zm1.515-.388a.902.902 0 0 0 .105-.478v-1.98a.872.872 0 0 0-.105-.473l.002.005a.425.425 0 0 0-.176-.128l-.003-.001a.473.473 0 0 0-.233-.027h.002a.49.49 0 0 0-.235.028l.003-.001a.416.416 0 0 0-.179.128l-.001.001a.855.855 0 0 0-.105.469v1.989a.888.888 0 0 0 .105.479c.051.05.114.091.184.118a.605.605 0 0 0 .454-.002l-.004.001a.549.549 0 0 0 .184-.118v-.01zm2.081-3.618h.941l.708 2.983.725-2.983h.916l.093 4.305h-.678l-.072-2.992-.699 2.992h-.544l-.724-3.003-.067 3.003h-.684l.085-4.305zm4.439 0h1.467c.845 0 1.268.407 1.268 1.222 0 .78-.445 1.171-1.335 1.17h-.499v1.913h-.906l.005-4.306zm1.253 1.84a.707.707 0 0 0 .498-.136.699.699 0 0 0 .131-.486 1.33 1.33 0 0 0-.046-.4l.002.009a.317.317 0 0 0-.067-.119.374.374 0 0 0-.112-.085l-.002-.001a.913.913 0 0 0-.357-.07l-.05.001h.002-.351v1.287h.352zM41 11.306h.972l.998 4.305h-.844l-.197-.993h-.867l-.203.993h-.857l.997-4.305zm.831 2.814-.339-1.807-.339 1.807h.677zm1.944-2.814h.634l1.213 2.456v-2.456h.752v4.305h-.603l-1.221-2.564v2.564h-.777l.002-4.305zm4.359 2.663-1.009-2.657h.85l.616 1.707.577-1.707H50l-.996 2.658v1.641h-.869v-1.642zM26.68 17.494v.225h-.739v1.75h-.31v-1.75h-.743v-.225h1.791zm2.316 1.975h-.246a.105.105 0 0 1-.061-.019.1.1 0 0 1-.039-.045v-.001l-.214-.469h-1.025l-.213.469a.126.126 0 0 1-.033.053.108.108 0 0 1-.062.019h-.245l.906-1.975h.314l.917 1.967zm-1.5-.733h.855l-.363-.804a1.232 1.232 0 0 1-.064-.176l-.003-.01-.034.105-.033.083-.358.802zm3.061.539a.982.982 0 0 0 .315-.023 1.018 1.018 0 0 0 .252-.085v-.444h-.365a.076.076 0 0 1-.046-.016c-.006-.004-.01-.01-.014-.016a.034.034 0 0 1-.004-.018v-.153h.703v.757c-.11.068-.237.123-.372.158l-.01.002c-.075.019-.15.033-.227.041a2.591 2.591 0 0 1-.264.012h-.012c-.159 0-.312-.027-.454-.077l.01.003a1.106 1.106 0 0 1-.364-.208l.002.001a.952.952 0 0 1-.231-.307l-.002-.006a.965.965 0 0 1-.083-.397v-.013.001-.012c0-.145.03-.282.084-.407l-.003.007a.916.916 0 0 1 .233-.313c.103-.089.227-.158.363-.205.155-.051.32-.076.485-.074.084 0 .168.005.252.017.074.011.146.027.215.05.064.02.124.047.181.078.055.031.108.065.158.103l-.087.122a.073.073 0 0 1-.029.026.093.093 0 0 1-.041.011.111.111 0 0 1-.057-.016h.001a.892.892 0 0 1-.094-.05l.005.003a.814.814 0 0 0-.115-.052l-.006-.002a1.027 1.027 0 0 0-.16-.043l-.007-.001a1.34 1.34 0 0 0-.218-.017h-.013.001-.011c-.121 0-.238.02-.346.057l.008-.002a.774.774 0 0 0-.267.156.672.672 0 0 0-.166.241l-.002.005a.917.917 0 0 0 .002.664l-.002-.006a.76.76 0 0 0 .445.405c.115.034.237.047.359.039zm2.887-.031h.989v.225h-1.291v-1.975h.309l-.007 1.75zm2.017.225h-.309v-1.975h.309v1.975zm1.152-1.965a.14.14 0 0 1 .047.036l1.324 1.488-.001-.035.001-.037v.002-1.471h.27v1.983h-.166a.14.14 0 0 1-.058-.012h.001a.162.162 0 0 1-.048-.037l-1.322-1.487v1.535h-.259v-1.975h.161c.018 0 .035.003.051.009zm3.921-.01v.217h-1.097v.652h.889v.209h-.889v.674h1.097v.218h-1.416v-1.97h1.416zM8.082 5.299 21.833 8.67v11.812L8.082 17.113V5.299zM7.2 4.292v13.395l15.513 3.804V8.098L7.2 4.293z"/><path d="M15.515 27.708 0 23.901V10.508l15.515 3.806v13.394z"/><path d="m7.458 5.147 13.571 3.329-5.772 4.984-13.573-3.33 5.773-4.983zM7.2 4.292 0 10.508l15.515 3.806 7.199-6.217L7.201 4.292zm9.187 22.663 6.326-5.464-6.327-1.551v7.015z"/></symbol><symbol id="icon-smartphone" viewBox="0 0 20 32"><path d="M17 0H3C1.346 0 0 1.346 0 3v26c0 1.654 1.346 3 3 3h14c1.654 0 3-1.346 3-3V3c0-1.654-1.346-3-3-3zM3 2h14a1 1 0 0 1 1 1v21H2V3a1 1 0 0 1 1-1zm14 28H3a1 1 0 0 1-1-1v-3h16v3a1 1 0 0 1-1 1z"/><path d="M4.708 27.478a.889.889 0 0 1 .001 1.319l-.001.001a1.048 1.048 0 0 1-1.417 0l.001.001a.889.889 0 0 1-.001-1.319l.001-.001a1.048 1.048 0 0 1 1.417 0l-.001-.001z"/></symbol><symbol id="icon-twitter-1" viewBox="0 0 32 32"><path d="M32.03 6.079c-1.1.493-2.376.857-3.713 1.028l-.068.007a6.556 6.556 0 0 0 2.873-3.579l.013-.046a12.88 12.88 0 0 1-4.076 1.573l-.084.014A6.558 6.558 0 0 0 15.63 9.558v.004c0 .52.043 1.021.152 1.496-5.454-.266-10.28-2.88-13.522-6.861a6.524 6.524 0 0 0-.902 3.313v.001a6.57 6.57 0 0 0 2.914 5.451 6.453 6.453 0 0 1-2.994-.823l.033.017v.072a6.592 6.592 0 0 0 5.213 6.44l.043.008a6.403 6.403 0 0 1-1.662.215h-.061.003c-.419 0-.843-.024-1.242-.112.85 2.598 3.261 4.509 6.13 4.57a13.093 13.093 0 0 1-8.122 2.8H1.6h.001-.062c-.531 0-1.055-.034-1.569-.099l.061.006C2.857 27.902 6.318 29 10.035 29h.063-.003c12.072 0 18.672-10 18.672-18.669 0-.288-.01-.57-.024-.848a13.203 13.203 0 0 0 3.258-3.355l.03-.047z"/></symbol></defs></svg>